# xmcd CD database file
#
# Track frame offsets:
#	150
#	12075
#	28800
#	44925
#	65400
#	95100
#	109125
#	123750
#	159225
#	177900
#
# Disc length: 2616 seconds
#
# Revision: 4
# Processed by: cddbd v1.5.2PL0 Copyright (c) Steve Scherf et al.
# Submitted via: CDex 1.70beta2
#
DISCID=830a360a
DTITLE=Siegfried Schwab - Guitaristics
DYEAR=1981
DGENRE=Jazz
TTITLE0=Potatoe Ball Queen (Solo) fuer Berta und ihre unglaublichen Kartoffelknoedel
TTITLE1=Canterbury Tales (Guit. Duo)
TTITLE2=Bluesy Lucy (Solo)
TTITLE3=Toscana (Solo)
TTITLE4=Lost Generations (12string Solo)  Dieses Stueck ist all jenen gewidmet, die ihre Jugend an eine Uniform verloren haben.
TTITLE5=No Petrol - Walkin' Blues (12string Solo)
TTITLE6=Escorial (Guit. Duo)
TTITLE7=Martinique (12string Solo), fuer den Weltumsegler Rollo Gebhard
TTITLE8=Trifels (Solo)
TTITLE9=Khyber Pass Blues (Solo)
EXTD=YEAR: 1981
EXTT0=
EXTT1=
EXTT2=
EXTT3=
EXTT4=
EXTT5=
EXTT6=
EXTT7=
EXTT8=
EXTT9=
PLAYORDER=
